<svg xmlns="http://www.w3.org/2000/svg" x="0px" y="0px" viewBox="8.61359977722168 6.358697891235352 31.545900344848633 35.11399841308594" enable-background="new 0 0 48 48">
<g>
	
		<path fill="#FFFFFF" stroke="#000000" stroke-width="1" stroke-linecap="round" stroke-linejoin="round" stroke-miterlimit="10" d="   M27.6375,40.9727H14.5231c-2.9876,0-5.4095-2.4219-5.4095-5.4095v-23.295c0-2.9876,2.4219-5.4095,5.4095-5.4095h13.1144   c2.9876,0,5.4095,2.4219,5.4095,5.4095v23.295C33.047,38.5508,30.6251,40.9727,27.6375,40.9727z"/>
</g>
<g>
	<g>
	</g>
	
		<path fill="#FFFFFF" stroke="#000000" stroke-width="1" stroke-linecap="round" stroke-linejoin="round" stroke-miterlimit="10" d="   M35.3819,36.2761l-2.4612-1.4879c-0.1505-0.091-0.3391-0.091-0.4896,0L29.97,36.2761c-0.5483,0.3315-1.2484-0.0634-1.2484-0.7041   V23.7901h7.9088V35.572C36.6303,36.2128,35.9302,36.6076,35.3819,36.2761z"/>
	<g>
		
			<circle fill="#FFFFFF" stroke="#000000" stroke-width="1" stroke-linecap="round" stroke-linejoin="round" stroke-miterlimit="10" cx="32.6759" cy="23.4973" r="6.9836"/>
	</g>
</g>
<g>
	
		<line fill="none" stroke="#000000" stroke-width="1" stroke-linecap="round" stroke-linejoin="round" stroke-miterlimit="10" x1="15.5185" y1="15.0211" x2="17.7422" y2="15.0211"/>
	
		<line fill="none" stroke="#000000" stroke-width="1" stroke-linecap="round" stroke-linejoin="round" stroke-miterlimit="10" x1="15.5185" y1="20.9509" x2="21.0803" y2="20.9509"/>
	
		<line fill="none" stroke="#000000" stroke-width="1" stroke-linecap="round" stroke-linejoin="round" stroke-miterlimit="10" x1="21.0803" y1="26.8806" x2="15.5185" y2="26.8806"/>
	<path fill="none" stroke="#000000" stroke-width="1" stroke-linecap="round" stroke-linejoin="round" stroke-miterlimit="10" d="   M33.1711,20.9855l0.2992,0.921c0.0996,0.3067,0.3854,0.5143,0.7078,0.5143h0.9684c0.5044,0,0.7141,0.6454,0.306,0.9419   l-0.7834,0.5692c-0.2609,0.1895-0.37,0.5255-0.2704,0.8321l0.2992,0.921c0.1559,0.4797-0.3932,0.8786-0.8012,0.5821l-0.7834-0.5692   c-0.2609-0.1895-0.6141-0.1895-0.8749,0l-0.7834,0.5692c-0.4081,0.2965-0.9571-0.1024-0.8012-0.5821l0.2992-0.921   c0.0996-0.3067-0.0095-0.6426-0.2704-0.8321l-0.7834-0.5692c-0.4081-0.2965-0.1983-0.9419,0.306-0.9419h0.9684   c0.3224,0,0.6082-0.2076,0.7078-0.5143l0.2992-0.921C32.3366,20.5058,33.0152,20.5058,33.1711,20.9855z"/>
</g>
</svg>