<svg xmlns="http://www.w3.org/2000/svg" width="430" height="430" fill="none" viewBox="0 0 430 430"><g stroke-linecap="round" stroke-linejoin="round" stroke-width="18"><path stroke="#121331" d="m136.361 155.97.224.833q.422 1.577.855 3.149a457.7 457.7 0 0 0 31.389 82.117m51.697-183.847a457.6 457.6 0 0 0 33.353 128.53l3.257 7.714"/><path stroke="#121331" d="M204.429 235.977c7.331-11.879 17.333-22.368 29.802-30.495 12.569-8.192 26.322-13.123 40.264-15.001"/><path stroke="#121331" d="M175.936 102.054a457.6 457.6 0 0 0 39.167 119.72"/><path stroke="#121331" d="m320.416 210.945-5.492-10.944a457.6 457.6 0 0 1-41.709-126.066l-.149-.85c-2.397-13.639-15.396-22.753-29.035-20.356-13.076 2.297-21.992 14.34-20.595 27.35a458 458 0 0 1-2.91-21.856l-.093-.858c-1.497-13.766-13.871-23.713-27.638-22.216s-23.713 13.87-22.216 27.637v.005h-.003l.877 8.063a457 457 0 0 0 4.525 31.436l-.195-1.086c-2.454-13.628-15.491-22.687-29.12-20.234-13.629 2.454-22.688 15.491-20.234 29.12v.004h-.003l1.437 7.982a457 457 0 0 0 8.386 37.49c-3.751-13.131-17.357-20.873-30.597-17.325-13.376 3.584-21.314 17.333-17.73 30.709v.004l-.002.001 2.099 7.834a457.6 457.6 0 0 0 52.62 121.943l23.128 37.469.002-.001c27.028 46.685 86.772 62.664 133.503 35.684 13.166-7.601 23.895-17.803 31.914-29.581 24.436-35.893 28.289-83.412 50-121.016l20.29-35.144q.566-.847 1.083-1.743c9.41-16.298 9.214-31.342-11.472-42.814-14.991-8.655-34.16-3.519-42.814 11.472a27 27 0 0 0-.373.664l-.065-.038-11.582 20.059zm0 0-4.292 2.365a77.72 77.72 0 0 0-39.123 55.087"/><path stroke="#08a88a" d="M75 100 35 75m45 205-45 20m25-105-45-5"/></g></svg>